PathFileType	4	(X/Y/Z)	s04c0302.trc
DataRate	CameraRate	NumFrames	NumMarkers	Units	OrigDataRate	OrigDataStartFrame	OrigNumFrames
200	200	5	50	mm	200	1500	2000
Frame#	Time	racr			lacr			c7			jug			rlel			rdr			llel			ldr			s2			lic			ric			lasi			rasi			rpsi			lpsi			rgt			lgt			rth1			rth2			rth3			rth4			rlfc			rmfc			rsh1			rsh2			rsh3			rsh4			rlmal			rmmal			rcal			rtoe			rmt5			lth1			lth2			lth4			lth3			llfc			lmfc			lsh1			lsh2			lsh3			lsh4			llmal			lmmal			lcal			ltoe			lmt5			SBIKE			LBIKE			RBIKE			
		X1	Y1	Z1	X2	Y2	Z2	X3	Y3	Z3	X4	Y4	Z4	X5	Y5	Z5	X6	Y6	Z6	X7	Y7	Z7	X8	Y8	Z8	X9	Y9	Z9	X10	Y10	Z10	X11	Y11	Z11	X12	Y12	Z12	X13	Y13	Z13	X14	Y14	Z14	X15	Y15	Z15	X16	Y16	Z16	X17	Y17	Z17	X18	Y18	Z18	X19	Y19	Z19	X20	Y20	Z20	X21	Y21	Z21	X22	Y22	Z22	X23	Y23	Z23	X24	Y24	Z24	X25	Y25	Z25	X26	Y26	Z26	X27	Y27	Z27	X28	Y28	Z28	X29	Y29	Z29	X30	Y30	Z30	X31	Y31	Z31	X32	Y32	Z32	X33	Y33	Z33	X34	Y34	Z34	X35	Y35	Z35	X36	Y36	Z36	X37	Y37	Z37	X38	Y38	Z38	X39	Y39	Z39	X40	Y40	Z40	X41	Y41	Z41	X42	Y42	Z42	X43	Y43	Z43	X44	Y44	Z44	X45	Y45	Z45	X46	Y46	Z46	X47	Y47	Z47	X48	Y48	Z48	X49	Y49	Z49	X50	Y50	Z50	
1500	7.5000	806.661785	1268.062049	-167.301040	801.239082	1259.162646	-470.889995	815.966647	1330.392409	-324.110885	739.501804	1188.813533	-327.621471	565.405397	1128.286495	9.588564	706.058741	913.367300	-101.376556	569.096348	1117.086545	-594.956633	694.801350	912.692134	-485.619060	215.841476	1241.574188	-224.219562	329.755424	1250.182916	-413.912285	402.113860	1198.758121	-102.747410	371.030870	1194.372319	-384.183256	420.855663	1145.685169	-159.721111	264.157166	1272.970977	-184.583472	246.185679	1287.404871	-255.711889	334.427931	1143.256830	-80.913340	288.508233	1173.642908	-443.496908	359.447922	986.584777	-67.327198	377.961821	902.285902	-84.895088	356.724858	820.004720	-90.039946	409.267608	905.134319	-105.570132	350.791345	673.967454	-121.169861	304.217458	663.510828	-225.527953	290.625626	562.384140	-88.957922	270.264112	474.659273	-104.998846	210.873630	412.517041	-104.681318	297.319772	465.256444	-131.643785	153.715049	269.583668	-107.080342	160.358602	276.924660	-194.511185	79.322030	271.232476	-130.892656	341.952747	129.720372	-182.818195	283.540107	134.359697	-114.673241	349.398611	1109.425980	-458.929110	430.268301	1080.536813	-473.941844	451.843297	1108.318163	-463.270000	485.374732	1013.946362	-493.019087	595.602629	902.618637	-493.650083	632.447671	870.363565	-384.381156	525.416412	822.195233	-510.029773	473.722157	757.211554	-482.824553	392.086850	723.111128	-472.025115	495.297861	737.148302	-456.971592	270.334781	636.286871	-451.533112	277.418462	639.688058	-365.146507	206.739655	681.515087	-405.147038	368.003717	423.533302	-417.801055	296.712397	463.991271	-477.055348	-184.646417	931.817287	-285.398981	-17.544842	79.476724	-485.296720	-17.499525	79.315294	-84.684078	
1501	7.5050	806.062021	1270.539927	-168.998475	801.991808	1258.440149	-471.999232	816.087681	1331.260601	-325.849758	739.601135	1189.671542	-328.443583	566.576940	1129.148602	8.151908	706.203748	913.372196	-101.885982	569.322343	1117.631777	-595.635288	694.848695	913.276915	-486.019829	216.349791	1243.669139	-223.209268	325.472773	1251.512358	-410.569045	403.667557	1200.310505	-103.347811	370.274051	1196.175719	-384.452592	421.486133	1146.995116	-160.367518	265.290274	1274.948827	-184.131845	246.912103	1289.715595	-255.142631	335.243314	1145.479598	-80.285204	287.864954	1176.513908	-443.212256	358.341476	988.529367	-65.357662	375.548806	903.603555	-82.281763	352.811909	821.620442	-86.991081	406.896238	905.698017	-102.987791	344.824671	675.432782	-118.130360	299.846621	665.085095	-223.254732	283.631490	564.571426	-86.490110	263.046482	477.054927	-102.251234	203.067794	415.391341	-102.956251	290.333953	467.295411	-129.224064	145.709238	272.386388	-106.456988	154.564318	279.049123	-192.883261	71.276213	275.329725	-130.811377	331.569071	129.322315	-182.443425	273.131512	134.723371	-114.341951	348.721517	1113.213864	-457.576951	429.757276	1085.545743	-473.147468	451.139654	1113.622749	-463.077041	485.761285	1019.312614	-491.840216	596.806834	908.745248	-493.949035	637.759813	877.819077	-383.510245	528.826852	827.204545	-509.325332	478.795581	760.648078	-482.897388	398.009768	724.521105	-472.134195	500.877246	740.803903	-457.279809	277.999715	635.105380	-452.036905	285.408395	638.599426	-364.695969	213.973770	679.617580	-405.824932	379.670338	424.188358	-417.591696	307.440046	463.332761	-477.210403	-184.720527	931.780939	-285.556326	-17.546636	79.456248	-485.311995	-17.522227	79.322315	-84.688446	
1502	7.5100	805.368040	1272.805043	-170.695368	802.432949	1257.528445	-472.871335	816.315660	1331.913715	-327.423760	739.158311	1190.673782	-329.151296	567.602539	1130.015605	6.807356	706.279892	913.337143	-102.233783	569.199380	1117.833108	-596.598719	694.799835	913.854681	-486.393044	216.713653	1246.132055	-222.605752	324.456813	1253.169818	-410.679257	404.917144	1202.495959	-104.010971	369.624021	1197.982464	-384.800279	421.950215	1148.795321	-160.875414	266.211899	1277.358347	-184.471063	247.015871	1292.116931	-254.525198	336.241768	1147.882676	-80.148351	287.185616	1179.401330	-443.032157	357.557804	991.001034	-63.490046	373.554283	905.503870	-79.653204	349.456311	823.752465	-84.160603	404.970507	906.958935	-100.367785	339.763812	677.427932	-115.338790	296.357341	667.104932	-221.326882	277.322907	567.489654	-84.392548	255.989700	480.088843	-100.919630	195.604222	418.703091	-102.262520	282.776086	469.817278	-127.573047	137.807622	276.304350	-105.967572	148.072992	283.055685	-192.755593	63.597123	280.318195	-130.890773	321.234392	129.511433	-181.936340	262.722420	135.847288	-113.906686	347.849623	1116.919314	-456.728869	429.130105	1090.034545	-472.133284	450.277703	1118.108483	-461.526255	486.280520	1024.256787	-489.956460	600.398196	915.431086	-491.621208	639.192737	884.458314	-382.551996	531.685508	831.231858	-508.507272	483.138400	763.089628	-482.813729	403.231062	725.171114	-471.957601	505.655462	743.613840	-457.393734	285.134217	633.032103	-452.631969	295.066929	637.240136	-364.634981	220.244246	676.572573	-406.350853	390.942257	424.482978	-417.673505	318.325220	462.317587	-478.026707	-184.771770	931.779598	-285.665628	-17.566625	79.445987	-485.314838	-17.541519	79.344211	-84.695931	
1503	7.5150	804.744974	1275.035422	-172.479482	802.577844	1256.507238	-473.506912	816.599427	1332.591579	-328.963625	738.455417	1191.885268	-329.866931	568.595091	1131.000334	5.621507	706.435436	913.416488	-102.384222	569.015735	1117.653132	-597.859849	694.877615	914.746935	-486.485618	217.107380	1248.869678	-222.098936	323.762766	1254.948403	-411.124345	405.940573	1205.238074	-104.627081	369.079869	1199.776487	-385.222838	422.229584	1151.074750	-161.266611	267.033043	1280.563817	-184.888392	247.070871	1294.834719	-254.423860	336.856609	1150.761418	-80.534284	286.367092	1182.522283	-442.732746	356.962733	993.336137	-62.071225	372.074177	907.876490	-77.128322	346.645202	826.374245	-81.671153	403.386562	908.802136	-98.011530	335.706159	679.891165	-113.130218	293.917463	669.437242	-219.783868	271.808187	571.085902	-82.688401	249.672547	484.081209	-99.352192	188.812911	423.237062	-101.084076	276.822978	473.290024	-125.540511	130.160436	281.037875	-105.543448	141.435893	287.497056	-192.225013	56.291181	286.129585	-131.007810	311.033791	130.484308	-181.326430	252.450140	137.747806	-113.475647	346.867667	1120.504542	-456.280487	428.308364	1094.026118	-471.103592	449.221560	1122.279758	-460.577582	485.758662	1028.480361	-489.450412	601.179802	920.295832	-490.823709	640.658993	889.234581	-381.424653	534.065421	834.184692	-507.612945	486.923390	764.856971	-482.598900	407.775047	725.266080	-472.017229	509.809714	745.519582	-457.463538	291.566458	630.450238	-453.262196	303.546702	634.850579	-365.042853	225.514809	672.564374	-407.364135	402.057220	424.675577	-418.015125	328.143949	460.200942	-477.735530	-184.850942	931.768991	-285.737551	-17.563465	79.453852	-485.323984	-17.534901	79.346848	-84.699567	
1504	7.5200	804.037371	1277.217364	-174.243498	801.677739	1255.293057	-473.420903	816.925474	1333.218128	-330.388393	736.589394	1193.746659	-330.418227	569.505940	1131.961904	4.520226	706.577645	913.447762	-102.532819	568.714469	1117.307937	-599.325903	694.623010	915.699204	-486.987035	217.435104	1251.858078	-222.071805	323.496436	1256.781014	-411.719097	406.688089	1208.500166	-105.209923	368.640682	1201.541844	-385.716885	422.304133	1153.799302	-161.480486	267.678274	1283.811367	-185.344767	247.336065	1297.769297	-254.833443	337.726829	1154.243984	-80.851647	285.721932	1185.757278	-442.504148	356.650609	996.463516	-60.571884	371.001573	910.664835	-74.971564	344.615914	829.451827	-79.578773	402.447342	911.208932	-95.796873	332.791623	682.976876	-111.032476	292.587670	672.222561	-218.714389	267.519357	575.218931	-81.336879	244.242338	488.225907	-98.195844	182.638526	428.375924	-100.450021	271.560655	477.187024	-123.904630	122.953458	286.453922	-105.149139	135.097874	292.617664	-191.639216	49.374721	292.784444	-131.282579	301.027573	131.895393	-180.552961	242.047403	139.987362	-113.158268	345.798882	1124.014852	-455.966390	427.310136	1097.460073	-470.083066	448.106378	1125.744078	-459.604898	484.673491	1031.999826	-488.571200	600.689693	923.653865	-490.194736	641.098127	892.405761	-380.309812	535.845899	836.176502	-506.515474	490.019946	765.641155	-482.370661	411.608895	724.550571	-472.162581	513.321735	746.537462	-457.368078	297.274283	627.054161	-453.856120	311.592083	631.818555	-365.647507	229.718172	667.542382	-408.308990	412.793617	424.710591	-418.595415	338.138087	457.840305	-478.091794	-184.955020	931.772893	-285.792504	-17.589195	79.476834	-485.317545	-17.554021	79.366237	-84.715298	
